<svg xmlns="http://www.w3.org/2000/svg" viewBox="0 0 31.58 14.08" xmlns:v="https://vecta.io/nano"><style>.F{isolation:isolate}</style><path d="M17.75 4.96h6.44L20.41.62c-.33-.06-.9-.15-3.73-.21l1.07 4.55h0z" fill="#2d2d2d"/><path d="M17.04.56l3.49.19 3.56 4.07h-6.04L17.04.55z" fill="#80c2dc"/><rect y="3.04" width="2.37" height="5.5" rx=".25" fill="#2d2d2d"/><path d="M2.05,3.09H.33c-.13,0-.23.1-.23.23v.84c0-.13.1-.23.23-.23h1.72c.13,0,.23.1.23.23v-.84c0-.13-.1-.23-.23-.23Z" fill="#383838"/><path d="M2.05,8.45H.33c-.13,0-.23-.1-.23-.23v-.84c0,.13.1.23.23.23h1.72c.13,0,.23-.1.23-.23v.84c0,.13-.1.23-.23.23Z" fill="#111"/><path d="M21.36,10.78c0,.31-.25.56-.56.56h-8.62c-.31,0-.56-.25-.56-.56h0c0-.31.25-.56.56-.56h8.62c.31,0,.56.25.56.56h0Z" fill="#2d2d2d"/><path d="M2.88 10.68h28.4c.18-.13.3-.33.3-.63 0-.79.04-1.67-.29-1.71V6.99c0-1-.75-.81-.75-.81s-.04-.29-.54-.75c-.96-.21-6.5-.58-6.5-.58L20.05.29C19.75-.18 4.02.07 4.02.07 3.54 1.16 2 5.09 2 5.09c-.31 1.85-.2 3.54-.29 3.54-.21 0 .04 1.75.04 1.75s.48.16 1.13.3h0z" fill="#e3e5e5"/><path class="F" d="M30.33 6.25L2.21 5.31l.12-.56 21 .32 6.56.49.44.69z" opacity=".7" fill="#fff"/><path d="M22.83 5.4H2.04v-.12h20.79v.12zm0 1.54H9.96v.12h12.87v-.12zm-.1-.37H9.71v.12h13.02v-.12z" fill="#cecece"/><path d="M15.77 10.01V.66h.32l3.86.19.13.02.08.1 2.76 3.62v.02l-.09 2.7L21.66 10h-5.88zm.12-9.22v9.1h5.68l1.13-2.62.09-2.62-2.75-3.61-.05-.06h-.08c-.38-.07-1.02-.14-3.84-.19h-.19 0zM15.7 10h-3.78L9.61 6.65l-.14-1.93h0L10.7.84l.07-.21h.22l4.49.03h.22v9.35h0zm-3.71-.12h3.59V.78h-.09L11.01.75h-.14l-.04.13-1.22 3.85.13 1.88 2.25 3.27z" fill="#bfbfbf"/><path d="M16.08.98l3.82.18 2.77 3.63h-6.58V.98h0zM10.44.94L4.29.95 2.78 4.79h6.44L10.44.94zm.6 0L9.81 4.8h5.71V.97L11.04.94z" fill="#2d2d2d"/><path d="M9.99 4.66l1.14-3.59 4.25.03v3.56H9.99zm-7.01-.01l1.4-3.57 5.87-.01-1.13 3.59H2.98zm13.23-3.54l3.61.16 2.57 3.37h-6.18V1.1z" fill="#80c2dc"/><path d="M22.18 10.65c.06 0 .1-.01.1-.02l1.33-2.29.09-.12.29-.24c.18-.11.38-.17.56-.17h2.65c.35 0 .76.24.94.54l1.33 2.29c.56-.07 1.64.34 1.64.34l-5.06 1.48L20.98 11l1.22-.35h0zm-10.57 0h-.02-.03 0l-1.35-2.29a1.19 1.19 0 0 0-.94-.54H6.62c-.35 0-.76.24-.94.54l-1.33 2.29-.02.02s-.02.01-.03.02l-2.3.24 5.94 1.63 6.04-2-2.38.11h0z" fill="#2d2d2d"/><path d="M4.2 11.08l1.24-2.74c.15-.3.55-.54.89-.54h2.65c.35 0 .79.24.98.54l1.52 2.29c.07.1 10.69.1 10.74 0l1.13-2.29c.15-.3.55-.54.89-.54h2.65c.35 0 .79.24.98.54l1.52 2.29c.07.1 1.67.34 1.67.34.27-.12.45-.34.41-.72 0-.06-.01-.12-.01-.18h-1.58l-1.4-2.12a2.15 2.15 0 0 0-1.66-.92h-2.65c-.61 0-1.25.39-1.51.92l-1.04 2.12h-9.65l-1.4-2.12a2.15 2.15 0 0 0-1.66-.92H6.26c-.61 0-1.25.39-1.51.92l-1.04 2.12H1.58l.19.96s.5.18 1.43.34c0 0 .96-.2 1.01-.3h0z" fill="#d4d6d6"/><path d="M3.73 10.31l1.04-2.12c.26-.53.9-.92 1.51-.92h2.65a2.15 2.15 0 0 1 1.66.92l1.4 2.12h9.65l1.04-2.12c.26-.53.9-.92 1.51-.92h2.65a2.15 2.15 0 0 1 1.66.92l1.4 2.12h1.57v-.04c0-.06-.01-.12-.01-.18h-1.58l-1.4-2.12a2.15 2.15 0 0 0-1.66-.92h-2.65c-.61 0-1.25.39-1.51.92l-1.04 2.12h-9.65l-1.4-2.12a2.15 2.15 0 0 0-1.66-.92H6.26c-.61 0-1.25.39-1.51.92l-1.04 2.12H1.58l.05.22h2.11 0z" fill="#fff"/><circle cx="7.96" cy="11.17" r="2.92" fill="#242424"/><path d="M7.96 9.07a2.1 2.1 0 1 0 0 4.2 2.1 2.1 0 1 0 0-4.2zm1.93 2.1c0 .09 0 .18-.02.27l-.66-.03-.39-.26.39-.26.65-.03c.02.1.03.2.03.31zm-1.45.41a.57.57 0 0 0 .08.08l.1.15-.15-.1s-.06-.05-.08-.08c0-.03-.02-.06-.03-.08l.08.03zm-.08-.83l.03-.08c.02-.03.05-.06.08-.08l.15-.1-.1.15s-.05.06-.08.08c-.03 0-.06.02-.08.03zm.21.6l-.07-.06c.03 0 .06 0 .09-.02.04 0 .08.01.11.03l.16.08h-.18s-.08-.02-.11-.04h0zm.13-.36s-.07.03-.11.03c-.03 0-.06-.01-.09-.02.02-.02.05-.04.07-.06.03-.02.07-.03.11-.03h.18l-.16.08h0zm.01-.28l.21-.42.54-.35c.12.15.22.31.29.49l-.58.3-.47-.03zm.1-.52l-.42.21-.03-.47.29-.57a1.89 1.89 0 0 1 .5.28l-.34.54h0zm-.46-.5l-.03-.42.26.07-.24.36h0zm0 2.92l.25.39-.28.08.03-.46zm.01-.24l.03-.47.42.21.36.57a1.92 1.92 0 0 1-.5.29l-.31-.6h0zm.35-.79l.47-.03.59.31a1.89 1.89 0 0 1-.28.5L8.93 12l-.21-.42zm.71-.04l.45-.03-.07.28-.38-.25h0zm-.01-.78l.36-.24.08.27-.44-.03zm0-.87l-.39.19.19-.39c.07.06.13.12.19.19h0zm-1.17-.64l-.03.63-.26.39-.26-.39-.03-.63.29-.02c.1 0 .19.01.28.02h0zM8.1 11.7l.06.07c.02.03.03.07.03.11v.18l-.08-.16c-.02-.03-.03-.07-.03-.11 0-.03.01-.06.02-.09zm-.02-1.19s.01-.08.03-.11l.08-.16v.18s-.02.08-.04.11c-.02.02-.04.05-.06.07 0-.03 0-.06-.02-.09h0zm-.36 1.37s.01-.08.03-.11c.02-.02.04-.05.06-.07 0 .03 0 .06.02.09 0 .04-.01.08-.03.11l-.08.16v-.18zm-.01-1.64l.08.16s.03.07.03.11c0 .03-.01.06-.02.09-.02-.02-.04-.05-.06-.07-.02-.03-.03-.07-.03-.11v-.18zm-1.69.93c0-.1.01-.2.03-.3l.65.03.39.26-.39.26-.66.03-.02-.27zm1.19.14s.07-.03.11-.03c.03 0 .06.01.09.02-.02.02-.05.04-.07.06-.03.02-.07.03-.11.03h-.18l.16-.08zm0-.32l-.16-.08h.18a.51.51 0 0 0 .11.04c.02.02.05.04.07.06-.03 0-.06 0-.09.02-.04 0-.08-.01-.11-.03h0zm.18.67s.05-.06.08-.08c.03 0 .06-.02.08-.03l-.03.08c-.02.03-.05.06-.08.08l-.15.1.1-.15h0zm.08-.94s-.06-.05-.08-.08l-.1-.15.15.1a.57.57 0 0 0 .08.08c0 .03.02.06.03.08l-.08-.03zm.05-.32l-.42-.21-.34-.54a1.89 1.89 0 0 1 .5-.28l.29.57-.03.47h0zm-.32.32l-.47.03-.57-.3c.07-.18.17-.35.29-.49l.54.35.21.42zm-.7.04l-.44.03c.02-.09.05-.18.08-.27l.36.24h0zm0 .78l-.37.25a2.29 2.29 0 0 1-.07-.28l.45.03h0zm.24.02l.47.03-.21.42-.56.36a1.89 1.89 0 0 1-.28-.5l.59-.31h0zm.36.55l.42-.21.03.47-.31.6a1.92 1.92 0 0 1-.5-.29l.36-.57zm.47.5l.03.46c-.1-.02-.19-.05-.28-.08l.25-.39zm-.01-2.92l-.23-.35c.08-.03.17-.05.26-.07l-.03.42h0zm-.86.01l.19.38-.39-.19c.06-.07.12-.13.19-.19zm-.22 2.72l.41-.2-.2.41c-.07-.06-.14-.13-.2-.21zm1.19.66l.03-.67.26-.39.26.39.03.67-.29.02c-.1 0-.19-.01-.29-.02h0zm1.56-.45l-.2-.41.41.2c-.06.07-.13.14-.2.21z" fill="#e3e5e5"/><use href="#B" fill="#383838"/><g fill="#111"><use href="#C"/><path d="M7.96 9.07a2.1 2.1 0 0 1 2.1 2.04v-.06a2.1 2.1 0 0 0-4.2 0v.06a2.1 2.1 0 0 1 2.1-2.04z"/></g><path d="M7.96 13.28a2.1 2.1 0 0 0 2.1-2.04v.06a2.1 2.1 0 0 1-4.2 0v-.06a2.1 2.1 0 0 0 2.1 2.04z" fill="#383838"/><circle cx="25.94" cy="11.17" r="2.92" fill="#242424"/><path d="M25.94 9.07a2.1 2.1 0 1 0 0 4.2 2.1 2.1 0 1 0 0-4.2zm1.93 2.1c0 .09 0 .18-.02.27l-.66-.03-.39-.26.39-.26.65-.03c.02.1.03.2.03.31zm-1.45.41a.57.57 0 0 0 .08.08l.1.15-.15-.1s-.06-.05-.08-.08c0-.03-.02-.06-.03-.08l.08.03zm-.08-.83l.03-.08c.02-.03.05-.06.08-.08l.15-.1-.1.15s-.05.06-.08.08c-.03 0-.06.02-.08.03zm.21.6l-.07-.06c.03 0 .06 0 .09-.02.04 0 .08.01.11.03l.16.08h-.18s-.08-.02-.11-.04h0zm.13-.36s-.07.03-.11.03c-.03 0-.06-.01-.09-.02.02-.02.05-.04.07-.06.03-.02.07-.03.11-.03h.18l-.16.08zm.01-.28l.21-.42.54-.35c.12.15.22.31.29.49l-.58.3-.47-.03h0zm.1-.52l-.42.21-.03-.47.29-.57a1.89 1.89 0 0 1 .5.28l-.34.54h0zm-.46-.5l-.03-.42.26.07-.24.36h0zm0 2.92l.25.39-.28.08.03-.46zm.01-.24l.03-.47.42.21.36.57a1.92 1.92 0 0 1-.5.29l-.31-.6h0zm.35-.79l.47-.03.59.31a1.89 1.89 0 0 1-.28.5l-.56-.36-.21-.42zm.7-.04l.45-.03-.07.28-.38-.25h0zm0-.78l.36-.24.08.27-.44-.03zm0-.87l-.39.19.19-.39c.07.06.13.12.19.19h0zm-1.17-.64l-.03.63-.26.39-.26-.39-.03-.63.29-.02a2.46 2.46 0 0 1 .28.02h0zm-.14 2.45l.06.07c.02.03.03.07.03.11v.18l-.08-.16c-.02-.03-.03-.07-.03-.11 0-.03.01-.06.02-.09zm-.01-1.19s.01-.08.03-.11l.08-.16v.18s-.02.08-.04.11c-.02.02-.04.05-.06.07 0-.03 0-.06-.02-.09h0zm-.37 1.37s.01-.08.03-.11c.02-.02.04-.05.06-.07 0 .03 0 .06.02.09 0 .04-.01.08-.03.11l-.08.16v-.18zm-.01-1.64l.08.16s.03.07.03.11c0 .03-.01.06-.02.09-.02-.02-.04-.05-.06-.07-.02-.03-.03-.07-.03-.11v-.18zm-1.69.93c0-.1.01-.2.03-.3l.65.03.39.26-.39.26-.66.03-.02-.27zm1.19.14s.07-.03.11-.03c.03 0 .06.01.09.02-.02.02-.05.04-.07.06-.03.02-.07.03-.11.03h-.18l.16-.08zm0-.32l-.16-.08h.18a.51.51 0 0 0 .11.04c.02.02.05.04.07.06-.03 0-.06 0-.09.02-.04 0-.08-.01-.11-.03h0zm.18.67s.05-.06.08-.08c.03 0 .06-.02.08-.03l-.03.08c-.02.03-.05.06-.08.08l-.15.1.1-.15zm.08-.94s-.06-.05-.08-.08l-.1-.15.15.1a.57.57 0 0 0 .08.08c0 .03.02.06.03.08l-.08-.03zm.05-.32l-.42-.21-.34-.54a1.89 1.89 0 0 1 .5-.28l.29.57-.03.47h0zm-.32.32l-.47.03-.57-.3c.07-.18.17-.35.29-.49l.54.35.21.42zm-.7.04l-.44.03c.02-.09.05-.18.08-.27l.36.24h0zm0 .78l-.37.25a2.29 2.29 0 0 1-.07-.28l.45.03h0zm.24.02l.47.03-.21.42-.56.36a1.89 1.89 0 0 1-.28-.5l.59-.31h0zm.36.55l.42-.21.03.47-.31.6a1.92 1.92 0 0 1-.5-.29l.36-.57zm.47.5l.03.46c-.1-.02-.19-.05-.28-.08l.25-.39zm-.01-2.92l-.23-.35c.08-.03.17-.05.26-.07l-.03.42h0zm-.86.01l.19.38-.39-.19c.06-.07.12-.13.19-.19zm-.22 2.72l.41-.2-.2.41c-.07-.06-.14-.13-.2-.21zm1.19.66l.03-.67.26-.39.26.39.03.67-.29.02c-.1 0-.19-.01-.29-.02h0zm1.56-.45l-.2-.41.41.2c-.06.07-.13.14-.2.21z" fill="#e3e5e5"/><use href="#B" x="17.98" fill="#383838"/><g fill="#111"><use href="#C" x="17.98"/><path d="M25.94 9.07a2.1 2.1 0 0 1 2.1 2.04v-.06a2.1 2.1 0 1 0-4.2 0v.06a2.1 2.1 0 0 1 2.1-2.04z"/></g><path d="M25.94 13.28a2.1 2.1 0 0 0 2.1-2.04v.06a2.1 2.1 0 1 1-4.2 0v-.06a2.1 2.1 0 0 0 2.1 2.04z" fill="#383838"/><path d="M22.62 10.86c0 .13-.1.23-.23.23H11.56c-.13 0-.23-.1-.23-.23h0c0-.13.1-.23.23-.23h10.83c.13 0 .23.1.23.23h0z" fill="#b2b2b2"/><path d="M22.61 10.8c-.02-.1-.11-.18-.22-.18H11.56c-.11 0-.2.08-.22.18h11.28z" fill="#fff"/><path d="M11.37 10.99c.04.06.11.1.19.1h10.83c.08 0 .15-.04.19-.1H11.37z" fill="#939393"/><path d="M11.35 5.48s-.04-.08-.08-.08H9.91s-.08.03-.08.08h0v.33s.04.08.08.08h1.36s.08-.04.08-.08v-.33h0zm-1.44-.04h1.36s.05.02.05.05v.17s-.02.05-.05.05H9.91s-.05-.02-.05-.05v-.17s.02-.05.05-.05zm1.36.43H9.91s-.05-.02-.05-.05v-.09s.03.02.05.02h1.36s.04 0 .05-.02v.09s-.02.05-.05.05zm6.33-.39s-.04-.08-.08-.08h-1.36s-.08.03-.08.08h0v.33s.04.08.08.08h1.36s.08-.04.08-.08v-.33h0zm-1.45-.04h1.36s.05.02.05.05v.17s-.02.05-.05.05h-1.36s-.05-.02-.05-.05v-.17s.02-.05.05-.05zm1.37.43h-1.36s-.05-.02-.05-.05v-.09s.03.02.05.02h1.36s.04 0 .05-.02v.09s-.02.05-.05.05z" fill="#bfbfbf"/><path class="F" d="M29.12,8.54h2.04c.42,0,.25.92.25.92l-1.87-.05-.42-.87Z" opacity=".7" fill="#fff"/><path d="M2.76 9.8V8.66H1.67c-.08.14-.03.7.01 1.14h1.08z" fill="#7f374d"/><path d="M2.76 8.93v-.61H1.67c-.05.08-.05.33-.03.61h1.13z" fill="#70221e"/><path d="M29.78,6.18v-.09c0-.14-.11-.25-.25-.25h-.92c-.14,0-.25.11-.25.25v.09h1.42Z" fill="#e37333"/><path d="M22.88,4.64c-.05.65-.53.48-.77.47-.23-.01-.3-.22-.27-.5.04-.39.19-.52.42-.5.23.01.66-.03.62.53h0Z" fill="#200000"/><path d="M21.89,4.4c.05.12.15.21.28.21.15,0,.79.15.56-.34-.11-.14-.32-.11-.46-.12-.15,0-.3.1-.38.25Z" fill="#2d2d2d"/><path d="M25.22 6.27l5.73.17.11.84-5.84-1.01zm-9.01-4.25v-.91l.89.02-.89.89zm2.54-.83l-2.53 2.53v.94H18l2.49-2.49-.66-.89c-.16-.02-.41-.06-1.07-.09zm.94 3.47h1.29l.79-.8-.56-.73-1.52 1.52h0zM3.45 3.43l-.36.94 3.29-3.29H5.8L3.45 3.43h0zm4.63-2.36L4.5 4.65h2.84l2.58-2.58.33-1H8.07h0zm4.54 0l-2.21 2.21-.42 1.38h3.59l1.81-1.81V1.1l-2.76-.03z" opacity=".7" fill="#fff" class="F"/><defs ><path id="B" d="M7.96 8.79c1.44 0 2.61 1.11 2.73 2.52l.01-.22a2.74 2.74 0 0 0-2.74-2.74 2.73 2.73 0 0 0-2.74 2.74l.01.22a2.74 2.74 0 0 1 2.73-2.52z"/><path id="C" d="M7.96 13.78a2.91 2.91 0 0 1-2.91-2.76v.15c0 1.61 1.31 2.92 2.92 2.92s2.92-1.31 2.92-2.92v-.15a2.91 2.91 0 0 1-2.91 2.76h0z"/></defs></svg>