<svg xmlns="http://www.w3.org/2000/svg" viewBox="0 0 116.78 35.72" xmlns:v="https://vecta.io/nano"><path d="M4.91 7.44s-3.63 3.38-3.61 6.39c0 .83.31 4.35-.21 5.18-.52.82-1.6 1.6-.82 3.28-.31 2.06-.16 4.54 2.52 5.67s12.64 2.27 30.89 2.58l52.89.41c.82.1 23.41.52 25.88.21s4.42-.05 4.32-1.59c-.1-1.55-.66-2.77-1.33-5.42-.06-.22-.57-.9-1.53-1.91 1.56 0-8.01-6.71-10.54-7.94-6.25-3.03-9.46-4.03-23.3-4.78-3.29-.18-3.61.04-3.61.04-2-.39-3.4-.84-4.74-1.6C69.67 6.8 53.29-.17 45.43.32 30.79 1.25 15.94 6.3 13.57 6.3 12 6.3 4.01 4.5 4.91 7.43z" fill="#d60606"/><path d="M112.45 28.61c-2.47.31-25.06-.1-25.88-.21-.82-.1-34.64-.1-52.89-.41S6.98 26.64 4.3 25.51C2.71 24.84.51 23.6.27 22.34c-.3 2.05-.13 4.49 2.53 5.62 2.68 1.13 12.64 2.27 30.89 2.58l52.89.41c.82.1 23.41.52 25.88.21s4.42-.05 4.32-1.59a8.82 8.82 0 0 0-.29-1.68c-.62.59-2.18.5-4.03.73z" fill="#341115"/><path d="M91.72 15.9c-5.93 0-10.74 4.81-10.74 10.74 0 1.51.31 2.95.88 4.25l4.72.06c.47.06 7.99.22 14.84.29.66-1.39 1.04-2.95 1.04-4.59 0-5.93-4.81-10.74-10.74-10.74z" fill="#200000"/><path d="M37.33,22.24c-1.63-3.77-5.82-8.57-14.17-8.57-5.93,0-12.53,5.88-11.45,13.61.18,1.28,1.91,2.38,1.91,2.38,9.82.81,62.59.1,67.48-1.33-18.2-1.04-41.86-1.66-43.78-6.08Z" fill="#341115"/><path d="M34.44,25.98c0-5.93-4.81-10.74-10.74-10.74s-10.74,4.81-10.74,10.74c0,1.3.24,2.53.66,3.68,4.94.41,11.5.72,19.79.87.65-1.38,1.02-2.92,1.02-4.55Z" fill="#200000"/><path d="M76.47,9.55c-1.73-.37-3.52-.91-4.74-1.6C69.67,6.8,52.12-.47,44.27.02,29.63.95,15.94,6.3,13.57,6.3c-.3,0,17.14-1.97,31.24,3.04,6.96,2.47,28.67.88,31.65.2Z" fill="#341115"/><path d="M63.24 10.53s-2.49-2.66-12.75-6.34C46.2 2.65 44.1 2.81 39.4 3.01c-12.25 3.03-5.66 3.59 1.98 6.3 7.89 2.81 23.73.84 21.87 1.21z" fill="#200000"/><path d="M50.24 3.64c-3.94-1.14-6.97-1.25-10.85-.63.52 2.11 1.27 4.22 1.98 6.3l.34.12c8.75 2.9 23.44 1.09 23.13 1.11 0 0-3.65-3.72-14.6-6.9z" fill="#80c2dc"/><path d="M41.27 9.01l-.53-1.55 4.74-4.74 1.83.24-6.05 6.05zm11.82-4.48l-2.85-.89-.91-.24-6.4 6.4c1.29.35 2.67.61 4.09.8l6.06-6.06zm2.88 1.05l-1.07-.41-5.67 5.67 1.38.1 5.36-5.36zm.43 5.49l8.44-.53s-1.34-1.35-4.79-3.12l-3.65 3.65zm2.01-4.45l-.72-.32-4.75 4.75 1.02.02 4.45-4.45z" fill="#fff" opacity=".7"/><path d="M71.41 10.14c2.49-.14 4.37-.43 5.06-.59-1.73-.37-3.52-.91-4.74-1.6C70 6.98 58.16 1.9 49.76.6c11.66 3.69 21.65 9.53 21.65 9.53z" fill="#80c2dc"/><path d="M81.59,16.33c-1.96,1.73-5.08,3.07-6.95,3.01l-36.17-1.25c-1.88-.06,34.79.36,37.41-.49,1.07-.34,2.65-1.14,4.19-3,1.11-1.34-36.38-2.83-34.5-2.77,0,0,25.22-.17,36.17,1.25,1.86.24,1.81,1.52-.15,3.24h0Z" fill="#ea454b"/><path d="M79.26 14.13l-.48-.06c.53.32.28 1-.75 1.86-.93.77-3.6 1.63-4.72 1.93.41.05 2.23-.07 2.87-.2 1.09-.31 2.04-.75 2.93-1.49 1.31-1.09 1.36-1.89.15-2.05z" fill="#341115"/><path d="M6.95,15.5l-3.9-.75,2.94.98c.73.24,1.52,1.38,1.79,2.55l.64,2.71c.27,1.17-.18,2.22-.87,2.13l-4.27-.92,4.89,1.49c2.36.47,2.38-.65,2.06-2.03l-.75-3.2c-.32-1.38-1.45-2.7-2.52-2.95Z" fill="#ea454b"/><path d="M6.02 15.46l-2.98-.71 2.01.94c.73.24 1.52 1.38 1.79 2.55l.64 2.71c.27 1.17-.04 2.04-.74 1.94l-3.57-.72 4.77 1.47c1.07.25 1.67-.66 1.35-2.03l-.75-3.2c-.32-1.38-1.45-2.7-2.52-2.95zM1.29 12.9l2.37.33c1.39.2 3.3-.88 4.26-2.4s.6-2.91-.8-3.1L4.78 7.4v.03s-2.92 2.72-3.5 5.46z" fill="#341115"/><path d="M6.11 7.75l-1.45-.18c-.57.54-2.78 2.74-3.24 4.97l1.42.18c1.4.18 3.27-.79 4.17-2.16s.5-2.63-.9-2.8z" fill="#f43b3b"/><path d="M6.69 9.8c0-1.01-.91-1.82-2.19-2.08l-.64.67c1.02.11 1.79.7 1.79 1.47 0 .89-1.03 1.68-2.31 1.75-.58.03-1.1-.09-1.5-.31a6.24 6.24 0 0 0-.3.78c.52.2 1.14.3 1.8.27 1.85-.11 3.35-1.24 3.35-2.54z" fill="#d60606"/><path d="M14.2 6.23l-.63.07a4.6 4.6 0 0 0 .63-.07z" fill="#80c2dc"/><path d="M116.44 27.7l-.99-3.56c-.05-.22-.61-.93-1.53-1.91h-3.11c-1.02 0-1.49.83-1.03 1.86l.78 1.75c.45 1.03 1.65 1.86 2.68 1.86h3.21z" fill="#341115"/><g opacity=".5"><path d="M71.73 7.95C69.67 6.8 52.12-.47 44.27.02 30.6.89 17.78 5.6 14.2 6.23a80.25 80.25 0 0 1 4.3-.26C24.48 4.8 39.78.55 47.2.99c4.73.28 21.25 8.62 22.91 9.24 3.13-.23 5.51-.49 6.36-.69-1.73-.37-3.52-.91-4.74-1.6z" fill="#fff"/></g><g opacity=".5"><path d="M113.92 22.23c1.56 0-8.01-6.71-10.54-7.94-6.25-3.03-9.46-4.03-23.3-4.78-3.29-.18-3.61.04-3.61.04-2.98.68-27.27 3.3-34.23.83C29.95 6.01 17.71 5.91 14.3 6.23c-.31.05-.55.08-.72.08-1.57 0-9.54-1.8-8.66 1.12l-.12-.02v.03s-3.01 2.72-3.5 5.46l.12.02c-.06.3-.11.61-.1.91 0 .83.31 4.35-.21 5.18-.52.82-1.6 1.6-.82 3.28 0 .03.02.04.02.05-.05.23 1.65 2.03 3.23 2.32-3.56-2.05-1.69-3.26-1.61-8.51.05-3.02 3.58-6.39 3.58-6.39-.89-2.93 7.04-1.13 8.6-1.13.17 0 .42-.03.72-.08 3.39-.31 13.87-2.02 26.08 2.35 6.91 2.47 32.71 1.65 35.67.98 0 0 .31-.22 3.58-.04 13.75.76 16.93 1.75 23.14 4.78 1.54.75 5.69 3.56 8.33 5.62h2.29z" fill="#fff"/></g><path d="M65.27,9.24c0,1.05-2.04,1.9-3.08,1.9s-1.89-.85-1.89-1.9.84-1.9,1.89-1.9,3.08.85,3.08,1.9Z" fill="#200000"/><g opacity=".5"><path d="M60.74,8.48c.29.45.79.75,1.37.75.65,0,1.74-.38,2.3-.93-.59-.49-1.57-.81-2.17-.81-.67,0-1.25.41-1.5,1Z" fill="#fff"/></g><path d="M33.47 26.02a9.7 9.7 0 1 1-19.4 0 9.7 9.7 0 1 1 19.4 0z" fill="#070000"/><path d="M27.97 28.82c-2.01 2.01-1.74-1.52-3.75-3.54s-5.55-1.74-3.54-3.75a5.16 5.16 0 0 1 7.29 0 5.16 5.16 0 0 1 0 7.29z" fill="#d60606"/><path d="M23.76 18.52c-4.14 0-7.5 3.36-7.5 7.5s3.36 7.5 7.5 7.5 7.5-3.36 7.5-7.5-3.36-7.5-7.5-7.5zm5.95 10.19l-.78-.57.95.15c-.05.14-.11.28-.17.41zM27 26.74l-.97-.7.97-.7 3.19-.51a6.78 6.78 0 0 1 .11 1.2c0 .41-.04.83-.12 1.22L27 26.74zm-9.35 1.58l1.1-.18-.9.65c-.07-.16-.14-.31-.2-.48zm-.3-1.05c-.08-.4-.12-.82-.12-1.25a6.01 6.01 0 0 1 .12-1.22l3.34.53.97.7-.97.7-3.34.53zm.49-4l.91.66-1.11-.18c.06-.16.13-.33.2-.48zm12.05.5l-.96.15.79-.57c.06.14.12.28.17.42zm-.69-1.37l-2.63 1.91-1.18.19.19-1.18 1.92-2.65c.67.47 1.25 1.06 1.7 1.74zm-3.25-1.46l.16-1.02a8.34 8.34 0 0 1 .44.19l-.6.83zm-.88-1.32l-.52 3.27-.7.97-.7-.97-.52-3.29c.37-.07.75-.11 1.15-.11.45 0 .88.05 1.3.13zm-3.33 1.32l-.64-.89c.15-.07.31-.13.47-.19l.17 1.07zm-1.6-.36l1.98 2.72.19 1.18-1.18-.19-2.74-1.98c.47-.68 1.07-1.27 1.76-1.73zm-1.74 9.16l2.72-1.97 1.18-.19-.19 1.18-1.96 2.7c-.69-.46-1.28-1.04-1.76-1.72zm3.34 1.38l-.17 1.05c-.16-.06-.31-.11-.46-.18l.63-.86zm.88 1.33l.52-3.26.7-.97.7.97.52 3.24c-.42.08-.85.13-1.3.13a6.12 6.12 0 0 1-1.14-.11zm3.33-1.33l.58.81a3.25 3.25 0 0 1-.43.18l-.16-.99zm1.53.27l-1.91-2.63-.19-1.18 1.18.19 2.62 1.9a6.82 6.82 0 0 1-1.7 1.73z" fill="#dcdfe2"/><path d="M25.19 29.28l1.12 1.54-.82.34-.3-1.88zm-3.81 1.54l1.12-1.54-.3 1.88-.82-.34zm2.46-3.66l-1.09 1.5.29-1.83-1.83.29 1.5-1.09-1.5-1.09 1.83.29-.29-1.83 1.09 1.5 1.09-1.5-.29 1.83 1.83-.29-1.5 1.09 1.5 1.09-1.83-.29.29 1.83-1.09-1.5zm3.25.22l1.88.3-.34.82-1.54-1.12zm-8.37.3l1.88-.3-1.54 1.12-.34-.82zm0-3.29l.34-.82 1.54 1.12-1.88-.3zm9.91-.82l.34.82-1.88.3 1.54-1.12zm-3.14-2.66l.82.34-1.12 1.54.3-1.88zm-4.11.34l.82-.34.3 1.88-1.12-1.54z" fill="#cbcfd1"/><g fill="#262626"><use href="#B"/><path d="M23.76 33.55c-4.03 0-7.32-3.16-7.53-7.14 0 .14-.02.27-.02.41a7.55 7.55 0 1 0 15.1 0c0-.14-.01-.27-.02-.41-.21 3.98-3.5 7.14-7.53 7.14z"/></g><circle cx="91.81" cy="26.02" r="9.7" transform="matrix(.082634 -.99658 .99658 .082634 58.29 115.36)" fill="#070000"/><path d="M96.01 28.82c-2.01 2.01-1.74-1.52-3.75-3.54-2.01-2.01-5.55-1.74-3.54-3.75a5.16 5.16 0 0 1 7.29 0 5.16 5.16 0 0 1 0 7.29z" fill="#d60606"/><path d="M91.81 18.52c-4.14 0-7.5 3.36-7.5 7.5s3.36 7.5 7.5 7.5 7.5-3.36 7.5-7.5-3.36-7.5-7.5-7.5zm5.95 10.19l-.78-.57.95.15c-.05.14-.11.28-.17.41zm-2.72-1.97l-.97-.7.97-.7 3.19-.51a6.78 6.78 0 0 1 .11 1.2c0 .41-.04.83-.12 1.22l-3.18-.51zm-9.35 1.58l1.1-.18-.9.65c-.07-.16-.14-.31-.2-.48zm-.3-1.05c-.08-.4-.12-.82-.12-1.25a6.01 6.01 0 0 1 .12-1.22l3.34.53.97.7-.97.7-3.34.53zm.5-4l.91.66-1.11-.18c.06-.16.13-.33.2-.48zm12.04.5l-.96.15.79-.57c.06.14.12.28.17.42zm-.69-1.37l-2.63 1.91-1.18.19.19-1.18 1.92-2.65c.67.47 1.25 1.06 1.7 1.74zm-3.25-1.46l.16-1.02a8.34 8.34 0 0 1 .44.19l-.6.83zm-.88-1.32l-.52 3.27-.7.97-.7-.97-.52-3.29c.37-.07.75-.11 1.15-.11.45 0 .88.05 1.3.13zm-3.33 1.32l-.64-.89c.15-.07.31-.13.47-.19l.17 1.07zm-1.6-.36l1.97 2.72.19 1.18-1.18-.19-2.74-1.98c.47-.68 1.07-1.27 1.76-1.73zm-1.74 9.16l2.72-1.97 1.18-.19-.19 1.18-1.96 2.7c-.69-.46-1.29-1.04-1.76-1.72zm3.34 1.38l-.17 1.05c-.16-.06-.31-.11-.46-.18l.63-.86zm.88 1.33l.52-3.26.7-.97.7.97.52 3.24c-.42.08-.85.13-1.3.13a6.12 6.12 0 0 1-1.14-.11zm3.33-1.33l.58.81a3.25 3.25 0 0 1-.43.18l-.16-.99zm1.53.27l-1.91-2.63-.19-1.18 1.18.19 2.62 1.9a6.82 6.82 0 0 1-1.7 1.73z" fill="#dcdfe2"/><path d="M93.23 29.28l1.12 1.54-.82.34-.3-1.88zm-3.81 1.54l1.12-1.54-.3 1.88-.82-.34zm2.47-3.66l-1.09 1.5.29-1.83-1.83.29 1.5-1.09-1.5-1.09 1.83.29-.29-1.83 1.09 1.5 1.09-1.5-.29 1.83 1.83-.29-1.5 1.09 1.5 1.09-1.83-.29.29 1.83-1.09-1.5zm3.24.22l1.88.3-.34.82-1.54-1.12zm-8.37.3l1.88-.3-1.54 1.12-.34-.82zm0-3.29l.34-.82 1.54 1.12-1.88-.3zm9.91-.82l.34.82-1.88.3 1.54-1.12zm-3.14-2.66l.82.34-1.12 1.54.3-1.88zm-4.11.34l.82-.34.3 1.88-1.12-1.54z" fill="#cbcfd1"/><g fill="#262626"><use href="#B" x="68.05"/><path d="M91.81 33.55c-4.03 0-7.32-3.16-7.53-7.14 0 .14-.02.27-.02.41a7.55 7.55 0 0 0 15.1 0c0-.14-.01-.27-.02-.41-.21 3.98-3.5 7.14-7.53 7.14z"/></g><g opacity=".5"><path d="M37.33,22.24c-1.63-3.77-5.82-10.89-18.5-9.34,10.05-2.01,16.04,1.51,19.8,8.35,2.28,4.15,24.13,4.49,42.48,7.07-9.38.2-41.86-1.66-43.78-6.08Z" fill="#fff"/></g><path d="M79.9 28.26l.14-.03-26.95-1.67c8.07.8 18 1.22 26.82 1.71z" fill="#341115"/><g opacity=".5"><path d="M11.68 26.91c-.82-7.55 5.65-13.24 11.49-13.24a17.56 17.56 0 0 1 1.28.05 19.65 19.65 0 0 0-2.36-.15c-5.83 0-12.3 5.68-11.49 13.22l1.08.12z" fill="#fff"/></g><g opacity=".5"><path d="M91.72 15.9a10.73 10.73 0 0 1 10.72 10.39l.02-.61c0-5.93-4.81-10.74-10.74-10.74s-10.74 4.81-10.74 10.74c0 .16.02.32.02.47.26-5.7 4.95-10.25 10.71-10.25z" fill="#fff"/></g><defs ><path id="B" d="M23.76,17.69c4.98,0,9.04,3.91,9.31,8.83,0-.17.03-.33.03-.5,0-5.15-4.18-9.33-9.33-9.33s-9.33,4.18-9.33,9.33c0,.17.02.34.03.5.26-4.92,4.32-8.83,9.31-8.83Z"/></defs></svg>