<svg xmlns="http://www.w3.org/2000/svg" viewBox="0 0 118.2 47.11" xmlns:v="https://vecta.io/nano"><path d="M118.2,45.12c0,1.1-26.46,1.99-59.1,1.99S0,46.22,0,45.12s26.46-1.99,59.1-1.99,59.1.89,59.1,1.99Z" fill="#999896"/><path d="M62.95 4.94c.7 2 .22 3.76-1.13 3.76H36.15c-1.35 0-1.89-1.76-1.27-3.76l.63-2.03C36.03 1.25 37.3 0 38.4 0h20.84c1.09 0 2.42 1.25 3 2.91l.71 2.03z" fill="#db3535"/><path d="M116.28 37.31l.27-4.51c-.56-4.35-5.1-8.74-8.12-9.81-2.16-.76-21.12-5.21-23.4-5.29C83.8 17.34 69 8.84 63.7 6.79c-1.49-.57-28.77-.83-29.53-.41-2.51 1.39-11.8 4.78-18.84 9.23-1.58 1-7.84 1.75-8.73 2.93C4.37 21.51 3 37.31 3 37.31c-.25 2.08.99 3.8 2.76 3.8h99.4c1.77 0 11.9-1.72 11.12-3.8z" fill="#f4cc25"/><path d="M44.81 21.05c-16.99 0-31.64 5.53-38.39 13.5l-.4 3.39c-.23 1.74.93 3.16 2.59 3.16h12.91c7.71-5.81 20.14-9.58 34.18-9.58 11.76 0 22.39 2.65 30.07 6.92-4.8-10.01-21.32-17.39-40.95-17.39z" fill="#f2a927"/><path d="M73.85 17.71c1.71.03 1.7-.82-1.12-2.84L64.7 9.41c-2.45-1.4-9.76-2.24-16.25-2.28-5.57-.04-9.16.55-12.09 1.46-2.03.63-10.85 3.84-14.68 6.84-.52.41-1.08 1.41 1.57 1.45l50.59.83z" fill="#2a2a2b"/><g fill="#f29b27"><path d="M117.62 38.23v-1.76c0-3.78-.34-4.65-2.96-4.65H97.22v2.44a2.97 2.97 0 0 1-2.97 2.97H26.91a2.97 2.97 0 0 1-2.97-2.97v-2.44H4.86a2.97 2.97 0 0 0-2.96 2.97v3.43c0 1.64-.06 2.97 1.57 2.97h104.84c5.08 0 9.31-1.33 9.31-2.97z"/><path d="M31.4 36.77c0-5.92-4.82-10.74-10.74-10.74S9.92 30.85 9.92 36.77c0 1.51.32 2.95.89 4.26H30.5c.57-1.31.89-2.75.89-4.26zm73.78 0c0-5.92-4.82-10.74-10.74-10.74S83.7 30.85 83.7 36.77c0 1.51.32 2.95.89 4.26h19.69c.57-1.31.89-2.75.89-4.26z"/></g><path d="M108.31 39.26H3.47c-1.5 0-1.57-1.12-1.57-2.58v1.55c0 1.64-.06 2.97 1.57 2.97h104.84c5.08 0 9.31-1.33 9.31-2.97v-1.76-.18c-.01 1.64-4.24 2.96-9.31 2.96z" fill="#ce7305"/><use href="#B" fill="#070707"/><path d="M29.32 36.49c0 4.78-3.88 8.66-8.66 8.66S12 41.27 12 36.49s3.88-8.66 8.66-8.66 8.66 3.88 8.66 8.66z" fill="#2a2a2b"/><path d="M28.07,36.49c0,4.09-3.32,7.41-7.41,7.41s-7.41-3.32-7.41-7.41,3.32-7.41,7.41-7.41,7.41,3.32,7.41,7.41Z" fill="#091119"/><path d="M20.66 29.99c-3.59 0-6.49 2.91-6.49 6.5a6.49 6.49 0 0 0 6.49 6.49 6.5 6.5 0 0 0 6.49-6.49c0-3.58-2.91-6.5-6.49-6.5zm4.5 2.07c.78.78.67 1.74 0 2.05l-2.23 1.02c-.09.04-.33-.1-.54-.31s-.35-.44-.31-.54l1.02-2.23c.31-.67 1.27-.78 2.05 0zm-4.43-1.86c1.1 0 1.7.76 1.45 1.45l-.85 2.3c-.03.09-.3.16-.6.16s-.56-.07-.6-.16l-.85-2.3c-.25-.69.35-1.45 1.45-1.45zm-4.45 1.82c.78-.78 1.74-.67 2.05 0l1.02 2.23c.04.09-.1.33-.31.54s-.44.35-.54.31l-2.23-1.02c-.67-.31-.78-1.27 0-2.05zm-1.86 4.43c0-1.1.76-1.7 1.45-1.45l2.3.85c.09.03.16.3.16.6s-.07.56-.16.6l-2.3.85c-.69.25-1.45-.35-1.45-1.45zm1.82 4.44c-.78-.78-.67-1.75 0-2.05l2.23-1.02c.09-.04.33.1.54.31s.35.44.31.54L18.3 40.9c-.31.67-1.27.78-2.05 0zm4.43 1.87c-1.1 0-1.7-.76-1.45-1.45l.85-2.3c.03-.09.3-.16.6-.16s.56.07.6.16l.85 2.3c.25.69-.35 1.45-1.45 1.45zm4.45-1.82c-.78.78-1.74.67-2.05 0l-1.02-2.23c-.04-.09.1-.33.31-.54s.44-.35.54-.31l2.23 1.02c.67.31.78 1.27 0 2.05zm.41-2.98l-2.3-.85c-.09-.03-.16-.3-.16-.6s.07-.56.16-.6l2.3-.85c.69-.25 1.45.35 1.45 1.45s-.76 1.7-1.45 1.45z" fill="#2a2a2b"/><use href="#B" x="73.78" fill="#070707"/><path d="M103.1,36.49c0,4.78-3.88,8.66-8.66,8.66s-8.66-3.88-8.66-8.66,3.88-8.66,8.66-8.66,8.66,3.88,8.66,8.66Z" fill="#2a2a2b"/><circle cx="94.44" cy="36.49" r="7.41" transform="matrix(.22342 -.974722 .974722 .22342 37.78 120.39)" fill="#091119"/><path d="M94.44 29.99c-3.59 0-6.49 2.91-6.49 6.5a6.49 6.49 0 0 0 6.49 6.49 6.5 6.5 0 0 0 6.49-6.49c0-3.58-2.91-6.5-6.49-6.5zm4.5 2.07c.78.78.67 1.74 0 2.05l-2.23 1.02c-.09.04-.33-.1-.54-.31s-.35-.44-.31-.54l1.02-2.23c.31-.67 1.27-.78 2.05 0zm-4.43-1.86c1.1 0 1.7.76 1.45 1.45l-.85 2.3c-.03.09-.3.16-.6.16s-.56-.07-.6-.16l-.85-2.3c-.25-.69.35-1.45 1.45-1.45zm-4.45 1.82c.78-.78 1.74-.67 2.05 0l1.02 2.23c.04.09-.1.33-.31.54s-.44.35-.54.31l-2.23-1.02c-.67-.31-.78-1.27 0-2.05zm-1.86 4.43c0-1.1.76-1.7 1.45-1.45l2.3.85c.09.03.16.3.16.6s-.07.56-.16.6l-2.3.85c-.69.25-1.45-.35-1.45-1.45zm1.82 4.44c-.78-.78-.67-1.75 0-2.05l2.23-1.02c.09-.04.33.1.54.31s.35.44.31.54l-1.02 2.23c-.31.67-1.27.78-2.05 0zm4.43 1.87c-1.1 0-1.7-.76-1.45-1.45l.85-2.3c.03-.09.3-.16.6-.16s.56.07.6.16l.85 2.3c.25.69-.35 1.45-1.45 1.45zm4.45-1.82c-.78.78-1.74.67-2.05 0l-1.02-2.23c-.04-.09.1-.33.31-.54s.45-.35.54-.31l2.23 1.02c.67.31.78 1.27 0 2.05zm.41-2.98l-2.3-.85c-.09-.03-.16-.3-.16-.6s.07-.56.16-.6l2.3-.85c.69-.25 1.45.35 1.45 1.45s-.76 1.7-1.45 1.45z" fill="#2a2a2b"/><path d="M112.45,25.7l-8.27.09c-.32,0-.36.35-.1.77l1.77,2.8c.19.3.56.58.86.63l9.48,1.55c-.22-1.68-.95-3.94-3.75-5.85Z" opacity=".3" fill="#091119"/><path d="M116.21,31.34c-.17-.83-.5-3.15-3.2-5.24h-8.13c-.33,0-.4.3-.18.66l1.4,2.28c.17.27.53.53.83.58l9.27,1.71Z" fill="#fff"/><path d="M106.48,26.13l-1.6-.03c-.33,0-.4.3-.18.66l1.4,2.28c.17.27.53.53.83.58l2.33.43-2.79-3.93Z" fill="#f49625"/><path d="M116.64,34.87c0,.65-.53,1.18-1.18,1.18h-3.44c-.65,0-1.18-.53-1.18-1.18h0c0-.65.53-1.18,1.18-1.18h3.44c.65,0,1.18.53,1.18,1.18h0Z" fill="#ce7305"/><path d="M114.29,34.82c0,.5-.41.91-.91.91h-.87c-.5,0-.91-.41-.91-.91h0c0-.5.41-.91.91-.91h.87c.5,0,.91.41.91.91h0Z" fill="#fff"/><path d="M4.59 24.87h1.75c1.09 0 2.17-.89 2.41-1.98l.37-1.72c.24-1.09-.46-1.98-1.55-1.98H6.11c-.6 1.3-1.1 3.41-1.51 5.68z" opacity=".3" fill="#091119"/><path d="M4.67 24.38c.4-2.07.81-3.64 1.24-4.69h1.66c.36 0 .67.13.87.37.21.25.27.61.19 1l-.37 1.72c-.19.87-1.07 1.6-1.94 1.6H4.66z" fill="#db3535"/><path d="M4.99 22.83l-.32 1.54h1.66c.84 0 1.7-.7 1.92-1.54H5z" fill="#f49625"/><g fill="#2a2a2b"><path d="M85.04 17.7c-1.23-.36-13.59-7.45-18.79-9.73-.18-.08-.37-.15-.56-.22l9.77 6.88c1.76 1.24 3.68 2.31 4.27 2.39l5.3.68z"/><path d="M47.73 17.2h.25v20.07h-.25zm26.2 20.07h-.25L74.7 17.2h.26l-1.03 20.07zM22.95 26c.07 0 .13.04.19.06l-1.65-10h-.25L22.88 26h.07z" opacity=".3"/><path d="M28.58 18.66a.55.55 0 0 1-.55.55h-4.45a.55.55 0 0 1-.55-.55h0a.55.55 0 0 1 .55-.55h4.45a.55.55 0 0 1 .55.55h0zm25.59.09a.55.55 0 0 1-.55.55h-4.45a.55.55 0 0 1-.55-.55h0a.55.55 0 0 1 .55-.55h4.45a.55.55 0 0 1 .55.55h0z"/></g><path d="M20.66 26.8c2.93 0 5.57 1.36 7.42 3.52-1.5-2.75-4.26-4.61-7.42-4.61s-5.92 1.86-7.42 4.61c1.85-2.16 4.49-3.52 7.42-3.52zm73.78-.77c2.93 0 5.57 1.36 7.42 3.52-1.5-2.75-4.26-4.61-7.42-4.61s-5.92 1.86-7.42 4.61c1.85-2.16 4.49-3.52 7.42-3.52z" opacity=".2" fill="#f9f9f9"/><path d="M46.25 17.1l-20.59-.41c-1.53-.03-2.24-1.84-2.02-2 3.71-2.71 10.75-5.26 12.79-5.9 2.67-.83 5.59-1.39 10.65-1.45l-.82 9.76zm25.18-2.91c-2.39-1.71-5.05-3.58-6.83-4.6-2.33-1.34-9.24-2.14-15.32-2.24l.53 9.79 20.77.34c.54 0 1.25-3 .85-3.29zm8.35 2.68l4.71.59c-2.73-1.3-13.41-7.38-18.19-9.48l9.21 6.49c1.77 1.24 3.68 2.31 4.28 2.39z" fill="#80c2dc"/><g fill="#091119"><path d="M55.3 23.09h2.57v2.57H55.3z"/><path d="M52.86 25.66v-2.57h-2.57v2.57h2.45v2.42h-2.45v-2.42h-2.44v-2.57h-2.57v2.57h2.44v2.42h-2.44v-2.42h-2.45v-2.57h-2.57v2.57h2.45v2.42h-2.45v2.57h2.57v-2.42h2.45v2.42h2.57v-2.42h2.44v2.42h2.57v-2.42h2.44v2.42h2.57v-2.57H55.3v-2.42h-2.44z"/></g><path d="M61.72 1.83C61.05.74 60.08 0 59.24 0H38.4c-.84 0-1.78.74-2.41 1.83h25.74z" opacity=".6" fill="#fff"/><path d="M52.23.84h1.48v1.48h-1.48zm-1.41 1.49V.84h-1.49v1.49h1.42v1.4h-1.42v-1.4h-1.41V.84h-1.49v1.49h1.42v1.4h-1.42v-1.4h-1.41V.84h-1.48v1.49h1.41v1.4h-1.41v1.48h1.48v-1.4h1.41v1.4h1.49v-1.4h1.41v1.4h1.49v-1.4h1.41v1.4h1.49V3.73h-1.49v-1.4h-1.41z" fill="#091119"/><path d="M46.74 11.26l-.49 5.84-5.24-.11 5.73-5.73zm-22.28 4.96l4.52-4.52c-1.96.9-3.9 1.93-5.34 2.98-.15.11.15.98.83 1.54zm5.62.55l3.92.08 9.35-9.35c-1.84.15-3.34.38-4.69.68l-8.59 8.59zm26.41-8.99l-5.86-.4-1.27 1.27.32 5.94 6.81-6.81zm10.86 3.55L64.6 9.58c-.38-.22-.89-.42-1.49-.61l-8.24 8.24 6.49.11 5.99-5.99zm-1.13 6.07h.75l3.74-3.73-.45-.32-4.04 4.04zm-5.63-9.03l-1.34-.23-9 9 1.55.03 8.8-8.8zm15.66 6.62l1.24-1.24-2.43-1.31-1.01 1.01 1.45 1.03.74.51zm3.27-.15l-1.33 1.33c.72.4 1.31.66 1.59.7l4.71.59-4.97-2.62z" fill="#fff" opacity=".7"/><g opacity=".6"><path d="M12.22 31.83H4.86A2.97 2.97 0 0 0 1.9 34.8v3.43c0 1.03-.02 1.93.36 2.47v-.43-3.43c0-1.64 1.32-2.97 2.96-2.97h6.17a9.51 9.51 0 0 1 .83-2.03z" fill="#ededed"/></g><path d="M31.24 34.9l-.25 2.87 52.73-.51c-.92-.65-52.48-2.35-52.48-2.35zm83.42-3.07h-11.78c.35.64 12.56 1.12 12.56 1.12 1.43 0 1.75 1.18 2.14 2.04-.12-2.52-.7-3.15-2.93-3.15z" opacity=".6" fill="#fff"/><g opacity=".6"><path d="M108.43 22.99c-2.16-.76-21.12-5.21-23.4-5.29C83.8 17.34 69 8.84 63.7 6.79c-1.49-.57-28.77-.83-29.53-.41-2.51 1.39-11.8 4.78-18.84 9.23-1.58 1-7.84 1.75-8.73 2.93-1.36 1.82-2.41 8.43-3.01 13.3h.16c.62-4.14 1.6-9.19 2.85-10.66.89-1.04 12.77-3.37 13.98-4.71 3.15-3.48 14.24-7.51 16.95-8.21 6.13-1.58 15.26-1.58 25.04.34 3.71.56 13.04 9.02 16.23 10.04 5.77 1.38 23.34 4.82 25.5 5.49 2.51.78 10.19 4.56 11.64 7.7h.42c-1.03-4.02-5.13-7.86-7.93-8.85z" fill="#fff"/></g><path d="M20.66 28.84a8.65 8.65 0 0 1 8.63 8.15c0-.17.03-.33.03-.5 0-4.78-3.88-8.66-8.66-8.66S12 31.71 12 36.49c0 .17.02.34.03.5.26-4.55 4.02-8.15 8.63-8.15zm0 15.12c-3.98.1-7.22-2.93-7.44-6.84 0 .08 0 .16-.01.25a7.24 7.24 0 0 0 7.45 7.09c4.05-.1 7.35-3.43 7.45-7.46 0-.08 0-.16-.01-.24-.23 3.92-3.47 7.12-7.44 7.22zM94.4 28.84a8.65 8.65 0 0 1 8.63 8.15c0-.17.03-.33.03-.5 0-4.78-3.88-8.66-8.66-8.66s-8.66 3.88-8.66 8.66c0 .17.02.34.03.5.26-4.55 4.02-8.15 8.63-8.15zm0 15.12c-3.98.1-7.22-2.93-7.44-6.84 0 .08 0 .16-.01.25a7.24 7.24 0 0 0 7.45 7.09c4.06-.1 7.35-3.43 7.45-7.46 0-.08 0-.16-.01-.24-.23 3.92-3.47 7.12-7.44 7.22z" opacity=".2" fill="#ededed"/><defs ><path id="B" d="M30.31,36.49c0-5.32-4.33-9.65-9.65-9.65s-9.65,4.33-9.65,9.65c0,1.7.45,3.3,1.23,4.69h16.84c.78-1.39,1.23-2.99,1.23-4.69Z"/></defs></svg>