<svg xmlns="http://www.w3.org/2000/svg" viewBox="0 0 116.6 38.8" xmlns:v="https://vecta.io/nano"><path d="M12.6 34c0 .1-.1.1-.2.1h0c-.1 0-.1-.1-.1-.2l.6-1.3c0-.1.1-.1.2-.1h0c.1 0 .1.1.1.2l-.6 1.3z" fill="#070000"/><path d="M11.7 31.2c-.5-.3-4.9-.8-7.8 1.4 1-.2 1.3-.4 1.7.2.4.2 1 .4 1.7.3 0-1.3 2.5-1.9 4.3-1.6l.1-.3h0z" fill="#262626"/><path d="M.7 35c-.1.4-.3.7-.4.6-.1 0-.2-.4-.1-.7s.3-.7.4-.6c.2 0 .2.4.1.7z" fill="#d60606"/><path d="M5.7 32.9c.1.2.1.5-.2.7h0c-.2.1-.5.1-.7-.2l-.2-.4c-.1-.2-.1-.5.2-.7h0c.2-.1.5-.1.7.2l.2.4zm4.2.2c.1.2.1.5-.2.7h0c-.2.1-.5.1-.7-.2l-.2-.4c-.1-.2 0-.5.2-.6h0c.2-.1.5-.1.7.2l.2.3zm4.1.4c-.2.2-.5.3-.7.1h0c-.2-.2-.3-.5-.1-.7l.3-.4c.2-.2.5-.3.7-.1h0c.2.2.3.5.1.7-.1 0-.3.4-.3.4z" fill="#070000"/><path d="M23.4 37.4v-.5c.1-.2-.3-1-.5-1.5-.4-.9-3.3-2.2-6.7-2.2-1.5-.9-3.2-1.7-4.5-1.9-.1 0-.5.1.1.4 1.1.5 3.3 1.5 1.6 1.5-6.2 0-7.5 0-7.7-.3-.7-1-2.6.2-3.5.6-1.2.4-1.9.6-1.7 1.3.2.5 0 .7-.2.8-.3-.1-.4 1.4-.1 1.6.3.3 2 .6 2.7.7 1 .1 10.7.1 13.8 0 2.6-.1 8.1-.1 6.7-.5h0z" fill="#f4cc25"/><g fill="#191919"><path d="M23.6 37.4s.1-.2-.1-.4c-.6.1-1 0-2.2 0-.3 0-1.4-1.1-1.7-1.1-1.3.1-2.5 1.5-3.3 1.5h-1l-6.3.1c-.9 0-2.2-1.6-3-1.6-2.1 0-3.5 1.6-3.8 1.5-.6-.1 0-.9-.4-1-.1 0-1.6-.2-1.7-.3-.1 1.3.3 1.4.5 1.5.4.1 1.1.2 1.8.3 1 .1 10.7.1 13.8 0 2.6-.1 8.7-.1 7.4-.5h0z"/><path d="M22.6 35.8l.6 1h.2c-.1-.4-.3-1.1-.5-1.4 0 .2-.3.4-.3.4zM3.9 34.6a2.22 2.22 0 0 1 2.2 2.2v1.1c-1.9 0-3.4 0-3.9-.1-.2 0-.5 0-.7-.1v-1c.1-1.1 1.1-2.1 2.4-2.1zm13.7 0a2.22 2.22 0 0 1 2.2 2.2v1h-3.7-.8v-1c.1-1.2 1.1-2.2 2.3-2.2h0z"/></g><circle cx="17.6" cy="36.9" r="1.9" fill="#070000"/><use href="#B" fill="#f2a927"/><path d="M16.1 36.9a1.54 1.54 0 0 0 1.5 1.5 1.54 1.54 0 0 0 1.5-1.5 1.54 1.54 0 0 0-1.5-1.5 1.54 1.54 0 0 0-1.5 1.5zm.3.4h.2-.2c0 .1 0 .1 0 0zm0-.2v-.2-.2l.6.1.2.1-.2.1-.6.1h0zm2.4.3l-.2-.1.2.1zm-.6-.4l-.2-.1.2-.1.7-.1v.2.2l-.7-.1zm.6-.6h-.2.2zm-2.4 0l.2.1-.2-.1zm.5-.6l.4.5v.2h-.2l-.5-.4c0-.1.2-.2.3-.3h0zm.2-.1l.1.2-.1-.2h0zm.5-.1h.2l-.1.6-.1.2-.1-.2-.1-.6h.2 0zm.5.1v.2-.2h0zm.6.5l-.5.4H18v-.2l.4-.5c.1 0 .2.1.3.3h0zm-.4 1.8l-.4-.5v-.2h.2l.5.4c0 .1-.1.2-.3.3h0zm-.2.1l-.1-.2.1.2h0zm-.5.1h-.3l.1-.6.1-.2.1.2.1.6c.1 0 0 0-.1 0h0zm-.4-.1c-.1 0-.1 0 0 0v-.2.2h0zm-.7-.5l.5-.4h.2v.2l-.4.5c0 0-.2-.2-.3-.3h0z" fill="#f9eff0"/><path d="M17.3 37.9l-.2-.1.2-.3v.4h0zm.6 0l-.1-.4.2.3-.1.1h0zm-.5-.5l.1-.4-.4.1.3-.2-.3-.2.4.1-.1-.4.2.3.2-.3-.1.4.4-.1-.3.2.3.2-.3-.1.1.4-.2-.3-.3.3zm-.7 0l-.1-.2.4-.1-.3.3h0zm1.9 0l-.3-.2.4.1c-.1-.1-.1.1-.1.1zm-.4-.8l.3-.2.1.2h-.4 0zm-1.2 0l-.4-.1.1-.2c0 .1.3.3.3.3zm.3-.4l-.2-.3.2-.1v.4h0zm.6 0l.1-.4.2.1-.3.3h0z" fill="#999"/><path d="M17.6 35.2c-1 0-1.8.8-1.8 1.7v-.1a1.8 1.8 0 1 1 3.6 0v.1c0-.9-.8-1.7-1.8-1.7h0zm0 3.2c.8 0 1.4-.6 1.5-1.4v.1a1.54 1.54 0 0 1-1.5 1.5 1.54 1.54 0 0 1-1.5-1.5V37c.1.7.7 1.4 1.5 1.4h0z" fill="#262626"/><path d="M1.9,36.9c0,1.1,0.9,1.9,1.9,1.9s1.9-0.9,1.9-1.9c0-1.1-0.9-1.9-1.9-1.9S1.9,35.8,1.9,36.9z" fill="#070000"/><use href="#B" x="-13.9" fill="#f2a927"/><path d="M2.3 36.9a1.54 1.54 0 0 0 1.5 1.5 1.54 1.54 0 0 0 1.5-1.5 1.54 1.54 0 0 0-1.5-1.5 1.54 1.54 0 0 0-1.5 1.5zm.3.4h.2-.2c0 .1 0 .1 0 0zm-.1-.2v-.2-.2l.6.1.2.1-.2.1-.6.1h0zm2.4.3l-.2-.1.2.1h0zm-.5-.4l-.2-.1.2-.1.6-.2v.2.2c0 .1-.6 0-.6 0zm.6-.6h-.2.2zm-2.4 0l.2.1-.2-.1zm.4-.6l.4.5v.2h-.2l-.5-.4.3-.3h0zm.2-.1h0l.1.2-.1-.2h0zm.6-.1H4l-.1.6-.1.2-.1-.2-.1-.6h.2 0zm.4.1h0v.2-.2h0zm.6.5l-.5.4h-.2v-.2l.4-.5c.1 0 .3.1.3.3h0zM4.5 38l-.4-.5v-.2h.2l.5.4-.3.3h0zm-.2.1s-.1 0 0 0l-.1-.2.1.2h0zm-.5.1h-.3l.1-.6.1-.2.1.2.2.6h-.2 0zm-.5-.1v-.2.2h0zm-.6-.5l.5-.4h.2v.2l-.4.5c-.1 0-.2-.2-.3-.3h0z" fill="#f9eff0"/><path d="M3.4 37.9l-.2-.1.2-.3v.4h0zm.7 0l-.1-.4.2.3-.1.1h0zm-.6-.5l.1-.4-.4.1.3-.2-.3-.2.4.1-.1-.4.2.3.3-.3-.1.4.4-.1-.3.2.3.2-.4-.1.1.4-.2-.3-.3.3zm-.7 0l-.1-.2.4-.1-.3.3h0zm1.9 0l-.3-.2.4.1c0-.1-.1.1-.1.1zm-.3-.8l.3-.2.1.2h-.4 0zm-1.3 0l-.4-.1.1-.2.3.3h0zm.4-.4l-.2-.3.2-.1v.4h0zm.5 0l.1-.4.2.1-.3.3h0z" fill="#999"/><path d="M3.8 35.2c-1 0-1.8.8-1.8 1.7v-.1A1.79 1.79 0 0 1 3.8 35a1.79 1.79 0 0 1 1.8 1.8v.1c0-.9-.8-1.7-1.8-1.7h0zm0 3.2c.8 0 1.4-.6 1.5-1.4v.1a1.54 1.54 0 0 1-1.5 1.5c-.8 0-1.5-.7-1.5-1.6v-.1a1.54 1.54 0 0 0 1.5 1.5z" fill="#262626"/><path d="M21.1 37.4l.4-.4c.1-.1.2-.1.2-.1l1.6-.1c.1 0 .1.5 0 .5l-2.2.1h0z" fill="#2b2b2b"/><path d="M11.6 31.2c1.5.4 3.1 1.2 4.4 1.9h-.6c-1.7-1.3-3.9-1.8-3.8-1.9h0z" fill="#80c2dc"/><path d="M9.5 37.6h4.8c.5 0 .5-.7.5-1.6v-.8c.1-1.3.1-1.5-.3-2.2h0c.4.6.4.9.3 2.1v.8c0 .9 0 1.6-.5 1.6l-4.8.1c-.6 0-1.1-.5-1.5-1.3-.4-.7-.6-1.6-.7-1.8-.1-.4-.1-.8.1-1s.4-.3.8-.3h0c-.4 0-.7.1-.8.3-.2.2-.2.6-.1 1 .1.2.3 1.1.7 1.8.4.8 1 1.3 1.5 1.3h0z" fill="#231f20"/><g opacity=".5"><path d="M19.2 33.9c-6.6 0-10.4-.1-14.9.4-.8-.4-2.3-.2-2.3-.2 8.8-1.4 17.2-.2 17.2-.2h0z" fill="#fff"/></g><g opacity=".5"><path d="M17.3 34.1c1-.1 2.3.1 2.8 1.9l-.4-.1c-.6-1.2-1.6-1.4-2.3-1.4-1.1.1-1.9 1-2 1.9-.1-1 .8-2.2 1.9-2.3z" fill="#fff"/></g><g opacity=".5"><path d="M15.3 35.6l-10-.7.7.9z" fill="#fff"/></g><g opacity=".5"><path d="M23 36.7l-3-.6.8.7z" fill="#fff"/></g><g opacity=".5"><path d="M22.9 37.4l-3 .1.7.2 2.3-.2z" fill="#fff"/></g><ellipse cx="8" cy="34.1" rx=".7" ry=".1" fill="#231f20"/><path d="M7.4 34.1c0 .1.3.1.6.1s.6 0 .6-.1-.2-.1-.6-.1c-.3 0-.6 0-.6.1z" fill="#540c16"/><g opacity=".5" fill="#fff"><path d="M11.5 31.5s.1-.1.2-.1c1.2.2 2.3 1 3.7 1.7 5.2.5 6.6 1.6 7.2 2.5.2.2.7 1.2.9 1.6 0-.9-.4-1.4-.6-1.9-.3-.8-3.3-2.2-6.9-2.2-1.5-.9-3.1-1.7-4.4-1.9 0 0-.4.1-.1.3zM.3 35.7c.3-.1.4-.3.4-.8 0-.6.7-.8 2-1.3.9-.3 1.8-.9 3-.4 1 .3 1.8.2 7.5.1.4 0 .6-.1.6-.2-.1.1-.3.1-.6.1-6.1 0-7.3 0-7.5-.3-.6-1-2.6.2-3.5.6-1.2.4-1.9.6-1.8 1.2.1.5 0 .8-.2.9-.1-.1-.2.4-.2.6.1-.2.2-.5.3-.5h0z"/></g><path d="M22.4 37.2c.1-.1.1-.2 0-.2h-.3c-.1 0-.2.1-.3.2h0c-.1.1-.1.2 0 .2h.3c.1 0 .3-.1.3-.2h0z" fill="#fff"/><path d="M20.5 34.1c.4-.5 1-.7 1-.7s.1.7 0 1.2c-.3 0-1-.5-1-.5z" fill="#f9eff0"/><path d="M20.5 34.1c.4-.5 1-.7 1-.7s-.1.5 0 1.2c-.3 0-1-.5-1-.5z" fill="#f4cc25"/><path d="M14.9 33.3c-.1.3-.6.4-.9.3s-.4-.3-.4-.6c.1-.3.3-.5.6-.4s.8.4.7.7z" fill="#ffe161"/><g opacity=".5"><path d="M13.8 32.9l.3.3c.2 0 .5 0 .7-.1-.1-.2-.4-.3-.5-.3-.3-.2-.4-.1-.5.1h0z" fill="#fff"/></g><g opacity=".5"><path d="M7.5 36.7c1.7.4 6.3.5 7.7 0-1.3.5-6.3 1.4-7.7 0z" fill="#fff"/></g><defs ><path id="B" d="M16.8 37.4c.4.4.3-.3.7-.7s1.1-.3.7-.7-1-.4-1.4 0-.4 1 0 1.4h0z"/></defs></svg>