<?xml version="1.0" encoding="UTF-8"?>
<svg id="Layer_2" data-name="Layer 2" xmlns="http://www.w3.org/2000/svg" viewBox="0 0 117.23 38.8">
  <defs>
    <style>
      .cls-1 {
        fill: #d60606;
      }

      .cls-1, .cls-2, .cls-3, .cls-4, .cls-5, .cls-6, .cls-7, .cls-8, .cls-9, .cls-10, .cls-11, .cls-12, .cls-13 {
        stroke-width: 0px;
      }

      .cls-2 {
        fill: #999;
      }

      .cls-3 {
        fill: #80c2dc;
      }

      .cls-4 {
        fill: #262626;
      }

      .cls-14 {
        opacity: .5;
      }

      .cls-5 {
        fill: #070000;
      }

      .cls-6 {
        fill: #540c16;
      }

      .cls-7 {
        fill: #2b2b2b;
      }

      .cls-8 {
        fill: #fff;
      }

      .cls-9 {
        fill: #231f20;
      }

      .cls-10 {
        fill: #ffe161;
      }

      .cls-11 {
        fill: #191919;
      }

      .cls-12 {
        fill: #f9eff0;
      }

      .cls-13 {
        fill: #f4cc25;
      }
    </style>
  </defs>
  <g id="Layer_1-2" data-name="Layer 1">
    <path class="cls-5" d="M62.12,15.14c0,.49-.49.49-.99.49h0c-.49,0-.49-.49-.49-.99l2.96-6.41c0-.49.49-.49.99-.49h0c.49,0,.49.49.49.99l-2.96,6.41Z"/>
    <path class="cls-4" d="M57.68,1.33c-2.46-1.48-24.16-3.94-38.45,6.9,4.93-.99,6.41-1.97,8.38.99,1.97.99,4.93,1.97,8.38,1.48,0-6.41,12.32-9.37,21.2-7.89l.49-1.48h0Z"/>
    <path class="cls-1" d="M3.45,20.07c-.49,1.97-1.48,3.45-1.97,2.96-.49,0-.99-1.97-.49-3.45.49-1.48,1.48-3.45,1.97-2.96.99,0,.99,1.97.49,3.45Z"/>
    <path class="cls-5" d="M28.1,9.71c.49.99.49,2.46-.99,3.45h0c-.99.49-2.46.49-3.45-.99l-.99-1.97c-.49-.99-.49-2.46.99-3.45h0c.99-.49,2.46-.49,3.45.99l.99,1.97ZM48.81,10.7c.49.99.49,2.46-.99,3.45h0c-.99.49-2.46.49-3.45-.99l-.99-1.97c-.49-.99,0-2.46.99-2.96h0c.99-.49,2.46-.49,3.45.99l.99,1.48ZM69.02,12.67c-.99.99-2.46,1.48-3.45.49h0c-.99-.99-1.48-2.46-.49-3.45l1.48-1.97c.99-.99,2.46-1.48,3.45-.49h0c.99.99,1.48,2.46.49,3.45-.49,0-1.48,1.97-1.48,1.97Z"/>
    <path class="cls-13" d="M115.36,31.9v-2.46c.49-.99-1.48-4.93-2.46-7.39-1.97-4.44-16.27-10.85-33.03-10.85-7.39-4.44-15.78-8.38-22.18-9.37-.49,0-2.46.49.49,1.97,5.42,2.46,16.27,7.39,7.89,7.39-30.57,0-36.97,0-37.96-1.48-3.45-4.93-12.82.99-17.25,2.96-5.92,1.97-9.37,2.96-8.38,6.41.99,2.46,0,3.45-.99,3.94C0,22.53-.49,29.93.99,30.91c1.48,1.48,9.86,2.96,13.31,3.45,4.93.49,52.75.49,68.03,0,12.82-.49,39.93-.49,33.03-2.46h0Z"/>
    <g>
      <path class="cls-11" d="M116.34,31.9s.49-.99-.49-1.97c-2.96.49-4.93,0-10.85,0-1.48,0-6.9-5.42-8.38-5.42-6.41.49-12.32,7.39-16.27,7.39h-4.93l-31.06.49c-4.44,0-10.85-7.89-14.79-7.89-10.35,0-17.25,7.89-18.73,7.39-2.96-.49,0-4.44-1.97-4.93-.49,0-7.89-.99-8.38-1.48C0,31.9,1.97,32.39,2.96,32.88c1.97.49,5.42.99,8.87,1.48,4.93.49,52.75.49,68.03,0,12.82-.49,42.89-.49,36.48-2.46h0Z"/>
      <path class="cls-11" d="M111.41,24.01l2.96,4.93h.99c-.49-1.97-1.48-5.42-2.46-6.9,0,.99-1.48,1.97-1.48,1.97ZM19.23,18.09c5.97.05,10.79,4.88,10.85,10.85v5.42c-9.37,0-16.76,0-19.23-.49-.99,0-2.46,0-3.45-.49v-4.93c.49-5.42,5.42-10.35,11.83-10.35ZM86.77,18.09c5.97.05,10.79,4.88,10.85,10.85v4.93h-22.18v-4.93c.49-5.92,5.42-10.85,11.34-10.85h0Z"/>
    </g>
    <circle class="cls-5" cx="86.77" cy="29.43" r="9.37"/>
    <path class="cls-12" d="M79.37,29.43c.1,4.04,3.35,7.29,7.39,7.39,4.04-.1,7.29-3.35,7.39-7.39-.1-4.04-3.35-7.29-7.39-7.39-4.04.1-7.29,3.35-7.39,7.39ZM80.85,31.41h.99-.99q0,.49,0,0ZM80.85,30.42v-1.97l2.96.49.99.49-.99.49-2.96.49h0ZM92.68,31.9l-.99-.49.99.49ZM89.72,29.93l-.99-.49.99-.49,3.45-.49v1.97s-3.45-.49-3.45-.49ZM92.68,26.97h-.99.99ZM80.85,26.97l.99.49-.99-.49ZM83.31,24.01l1.97,2.46v.99h-.99l-2.46-1.97c0-.49.99-.99,1.48-1.48h0ZM84.3,23.52l.49.99-.49-.99h0ZM86.77,23.02h.99l-.49,2.96-.49.99-.49-.99-.49-2.96h.99ZM89.23,23.52v.99-.99h0ZM92.19,25.98l-2.46,1.97h-.99v-.99l1.97-2.46c.49,0,.99.49,1.48,1.48h0ZM90.22,34.86l-1.97-2.46v-.99h.99l2.46,1.97c0,.49-.49.99-1.48,1.48h0ZM89.23,35.35l-.49-.99.49.99h0ZM86.77,35.84h-1.48l.49-2.96.49-.99.49.99.49,2.96c.49,0,0,0-.49,0h0ZM84.79,35.35q-.49,0,0,0v-.99.99h0ZM81.34,32.88l2.46-1.97h.99v.99l-1.97,2.46-1.48-1.48h0Z"/>
    <path class="cls-2" d="M85.29,34.36l-.99-.49.99-1.48v1.97h0ZM88.24,34.36l-.49-1.97.99,1.48-.49.49h0ZM85.78,31.9l.49-1.97-1.97.49,1.48-.99-1.48-.99,1.97.49-.49-1.97.99,1.48.99-1.48-.49,1.97,1.97-.49-1.48.99,1.48.99-1.48-.49.49,1.97-.99-1.48s-1.48,1.48-1.48,1.48ZM82.33,31.9l-.49-.99,1.97-.49-1.48,1.48h0ZM91.7,31.9l-1.48-.99,1.97.49c-.49-.49-.49.49-.49.49ZM89.72,27.95l1.48-.99.49.99h-1.97ZM83.81,27.95l-1.97-.49.49-.99c0,.49,1.48,1.48,1.48,1.48ZM85.29,25.98l-.99-1.48.99-.49v1.97h0ZM88.24,25.98l.49-1.97.99.49-1.48,1.48h0Z"/>
    <path class="cls-4" d="M86.77,21.05c-4.93,0-8.87,3.94-8.87,8.38v-.49c0-4.9,3.97-8.88,8.87-8.88,4.9,0,8.88,3.97,8.88,8.87h0v.5c0-4.44-3.94-8.38-8.87-8.38h0ZM86.77,36.83c3.94,0,6.9-2.96,7.39-6.9v.49c-.1,4.04-3.35,7.29-7.39,7.39-4.04-.1-7.29-3.35-7.39-7.39v-.49c.49,3.45,3.45,6.9,7.39,6.9h0Z"/>
    <path class="cls-5" d="M9.37,29.43c0,5.42,4.44,9.37,9.37,9.37s9.37-4.44,9.37-9.37c0-5.42-4.44-9.37-9.37-9.37s-9.37,3.94-9.37,9.37Z"/>
    <path class="cls-12" d="M11.34,29.43c.1,4.04,3.35,7.29,7.39,7.39,4.04-.1,7.29-3.35,7.39-7.39-.1-4.04-3.35-7.29-7.39-7.39-4.04.1-7.29,3.35-7.39,7.39ZM12.82,31.41h.99-.99q0,.49,0,0ZM12.32,30.42v-1.97l2.96.49.99.49-.99.49-2.96.49h0ZM24.16,31.9l-.99-.49.99.49h0ZM21.69,29.93l-.99-.49.99-.49,2.96-.99v1.97c0,.49-2.96,0-2.96,0ZM24.65,26.97h-.99.99ZM12.82,26.97l.99.49-.99-.49ZM14.79,24.01l1.97,2.46v.99h-.99l-2.46-1.97,1.48-1.48h0ZM15.78,23.52h0l.49.99-.49-.99h0ZM18.73,23.02h.99l-.49,2.96-.49.99-.49-.99-.49-2.96h.99,0ZM20.71,23.52h0v.99-.99h0ZM23.66,25.98l-2.46,1.97h-.99v-.99l1.97-2.46c.49,0,1.48.49,1.48,1.48h0ZM22.18,34.86l-1.97-2.46v-.99h.99l2.46,1.97-1.48,1.48h0ZM21.2,35.35s-.49,0,0,0l-.49-.99.49.99h0ZM18.73,35.84h-1.48l.49-2.96.49-.99.49.99.99,2.96h-.99,0ZM16.27,35.35v-.99.99h0ZM13.31,32.88l2.46-1.97h.99v.99l-1.97,2.46c-.49,0-.99-.99-1.48-1.48h0Z"/>
    <path class="cls-2" d="M16.76,34.36l-.99-.49.99-1.48v1.97h0ZM20.21,34.36l-.49-1.97.99,1.48-.49.49h0ZM17.25,31.9l.49-1.97-1.97.49,1.48-.99-1.48-.99,1.97.49-.49-1.97.99,1.48,1.48-1.48-.49,1.97,1.97-.49-1.48.99,1.48.99-1.97-.49.49,1.97-.99-1.48-1.48,1.48ZM13.8,31.9l-.49-.99,1.97-.49-1.48,1.48h0ZM23.17,31.9l-1.48-.99,1.97.49c0-.49-.49.49-.49.49ZM21.69,27.95l1.48-.99.49.99h-1.97ZM15.28,27.95l-1.97-.49.49-.99,1.48,1.48h0ZM17.25,25.98l-.99-1.48.99-.49v1.97h0ZM19.72,25.98l.49-1.97.99.49-1.48,1.48h0Z"/>
    <path class="cls-4" d="M18.73,21.05c-4.93,0-8.87,3.94-8.87,8.38v-.49c-.03-4.87,3.9-8.85,8.77-8.87.03,0,.07,0,.1,0,4.87-.03,8.85,3.9,8.87,8.77,0,.03,0,.07,0,.1v.49c0-4.44-3.94-8.38-8.87-8.38h0ZM18.73,36.83c3.94,0,6.9-2.96,7.39-6.9v.49c-.1,4.04-3.35,7.29-7.39,7.39-3.94,0-7.39-3.45-7.39-7.89v-.49c.1,4.04,3.35,7.29,7.39,7.39Z"/>
    <path class="cls-7" d="M104.02,31.9l1.97-1.97c.49-.49.99-.49.99-.49l7.89-.49c.49,0,.49,2.46,0,2.46l-10.85.49h0Z"/>
    <path class="cls-3" d="M57.19,1.33c7.39,1.97,15.28,5.92,21.69,9.37h-2.96C67.54,4.29,56.69,1.83,57.19,1.33h0Z"/>
    <path class="cls-9" d="M46.83,32.88h23.66c2.46,0,2.46-3.45,2.46-7.89v-3.94c.49-6.41.49-7.39-1.48-10.85h0c1.97,2.96,1.97,4.44,1.48,10.35v3.94c0,4.44,0,7.89-2.46,7.89l-23.66.49c-2.96,0-5.42-2.46-7.39-6.41-1.97-3.45-2.96-7.89-3.45-8.87-.49-1.97-.49-3.94.49-4.93s1.97-1.48,3.94-1.48h0c-1.97,0-3.45.49-3.94,1.48-.99.99-.99,2.96-.49,4.93.49.99,1.48,5.42,3.45,8.87,1.97,3.94,4.93,6.41,7.39,6.41h0Z"/>
    <g class="cls-14">
      <path class="cls-8" d="M94.65,14.64c-32.54,0-51.27-.49-73.45,1.97-3.94-1.97-11.34-.99-11.34-.99,43.38-6.9,84.79-.99,84.79-.99h0Z"/>
    </g>
    <g class="cls-14">
      <path class="cls-8" d="M85.29,15.63c4.93-.49,11.34.49,13.8,9.37l-1.97-.49c-2.96-5.92-7.89-6.9-11.34-6.9-5.42.49-9.37,4.93-9.86,9.37-.49-4.93,3.94-10.85,9.37-11.34Z"/>
    </g>
    <g class="cls-14">
      <path class="cls-8" d="M75.43,23.02l-49.3-3.45,3.45,4.44,45.85-.99Z"/>
    </g>
    <g class="cls-14">
      <path class="cls-8" d="M113.39,28.45l-14.79-2.96,3.94,3.45,10.85-.49Z"/>
    </g>
    <g class="cls-14">
      <path class="cls-8" d="M112.89,31.9l-14.79.49,3.45.99,11.34-.99v-.49Z"/>
    </g>
    <ellipse class="cls-9" cx="39.44" cy="15.63" rx="3.45" ry=".49"/>
    <path class="cls-6" d="M36.48,15.63c0,.49,1.48.49,2.96.49s2.96,0,2.96-.49-.99-.49-2.96-.49c-1.48,0-2.96,0-2.96.49Z"/>
    <g class="cls-14">
      <path class="cls-8" d="M56.69,2.81s.49-.49.99-.49c5.92.99,11.34,4.93,18.24,8.38,25.64,2.46,32.54,7.89,35.49,12.32.99.99,3.45,5.92,4.44,7.89,0-4.44-1.97-6.9-2.96-9.37-1.48-3.94-16.27-10.85-34.02-10.85-7.39-4.44-15.28-8.38-21.69-9.37,0,0-1.97.49-.49,1.48ZM1.48,23.52c1.48-.49,1.97-1.48,1.97-3.94,0-2.96,3.45-3.94,9.86-6.41,4.44-1.48,8.87-4.44,14.79-1.97,4.93,1.48,8.87.99,36.97.49,1.97,0,2.96-.49,2.96-.99-.49.49-1.48.49-2.96.49-30.07,0-35.99,0-36.97-1.48-2.96-4.93-12.82.99-17.25,2.96-5.92,1.97-9.37,2.96-8.87,5.92.49,2.46,0,3.94-.99,4.44-.49-.49-.99,1.97-.99,2.96.49-.99.99-2.46,1.48-2.46h0Z"/>
    </g>
    <path class="cls-8" d="M110.43,30.91c.49-.49.49-.99,0-.99h-1.48c-.49,0-.99.49-1.48.99h0c-.49.49-.49.99,0,.99h1.48c.49,0,1.48-.49,1.48-.99h0Z"/>
    <path class="cls-12" d="M101.06,15.63c1.97-2.46,4.93-3.45,4.93-3.45,0,0,.49,3.45,0,5.92-1.48,0-4.93-2.46-4.93-2.46Z"/>
    <path class="cls-13" d="M101.06,15.63c1.97-2.46,4.93-3.45,4.93-3.45,0,0-.49,2.46,0,5.92-1.48,0-4.93-2.46-4.93-2.46Z"/>
    <path class="cls-10" d="M73.45,11.69c-.49,1.48-2.96,1.97-4.44,1.48s-1.97-1.48-1.97-2.96c.49-1.48,1.48-2.46,2.96-1.97s3.94,1.97,3.45,3.45Z"/>
    <g class="cls-14">
      <path class="cls-8" d="M68.03,9.71l1.48,1.48c.99,0,2.46,0,3.45-.49-.49-.99-1.97-1.48-2.46-1.48-1.48-.99-1.97-.49-2.46.49h0Z"/>
    </g>
    <g class="cls-14">
      <path class="cls-8" d="M36.97,28.45c8.38,1.97,31.06,2.46,37.96,0-6.41,2.46-31.06,6.9-37.96,0Z"/>
    </g>
  </g>
</svg>