<?xml version="1.0" encoding="UTF-8"?>
<svg id="Layer_1" data-name="Layer 1" xmlns="http://www.w3.org/2000/svg" viewBox="0 0 1324.39 1313.16">
  <defs>
    <style>
      .cls-1 {
        fill: #014b92;
        font-family: GolgolsRegular, Golgols;
        font-size: 262px;
      }

      .cls-2 {
        font-family: Enigma, Enigma;
        font-size: 1190px;
      }

      .cls-2, .cls-3 {
        fill: #c8002a;
      }

      .cls-3 {
        stroke-width: 0px;
      }
    </style>
  </defs>
  <text class="cls-1" transform="translate(0 1245.04)"><tspan x="0" y="0">himalnpne</tspan></text>
  <g>
    <text class="cls-2" transform="translate(40.1 1011.62)"><tspan x="0" y="0">H</tspan></text>
    <path class="cls-3" d="M1284.3,816.62c0,53.84-18.59,99.36-55.78,136.55s-83.3,56.56-138.3,58.11l-371.3-567.11v392.8c0,48.03-16.95,89.09-50.84,123.19-33.91,34.09-74.86,51.12-122.89,51.12V373.85c0-54.22,18.78-100.03,56.36-137.41,37.56-37.38,61.24-56.5,116.64-58.07l392.36,566.19v-392.8c0-47.64,16.94-88.5,50.84-122.59,33.89-34.09,74.86-51.14,122.91-51.14v638.58Z"/>
  </g>
</svg>